<svg width="207" height="100" viewBox="0 0 207 100" fill="none" xmlns="http://www.w3.org/2000/svg">
<path d="M194 52C194 56.9445 192.534 61.778 189.787 65.8893C187.04 70.0005 183.135 73.2048 178.567 75.097C173.999 76.9892 168.972 77.4843 164.123 76.5196C159.273 75.555 154.819 73.174 151.322 69.6777C147.826 66.1814 145.445 61.7268 144.48 56.8773C143.516 52.0277 144.011 47.0011 145.903 42.4329C147.795 37.8648 151 33.9603 155.111 31.2133C159.222 28.4662 164.055 27 169 27V52H194Z" fill="#F7B918"/>
<path d="M32.3223 17.6777C42.0854 7.91456 57.9146 7.91456 67.6777 17.6777L82.3223 32.3223C92.0854 42.0854 92.0854 57.9146 82.3223 67.6777L67.6777 82.3223C57.9146 92.0854 42.0854 92.0854 32.3223 82.3223L17.6777 67.6777C7.91456 57.9146 7.91456 42.0854 17.6777 32.3223L32.3223 17.6777Z" fill="#DD1C1A"/>
<path d="M49.16 62.56C46.64 62.56 44.4933 62.0117 42.72 60.915C40.9467 59.795 39.5933 58.29 38.66 56.4C37.7267 54.51 37.26 52.41 37.26 50.1C37.26 48.5133 37.505 46.9383 37.995 45.375C38.5083 43.8117 39.2667 42.4 40.27 41.14C41.2733 39.8567 42.5333 38.8417 44.05 38.095C45.59 37.325 47.375 36.94 49.405 36.94C50.035 36.94 50.7467 37.01 51.54 37.15C52.3333 37.2667 53.1267 37.4533 53.92 37.71C54.7367 37.9667 55.46 38.2817 56.09 38.655L55.95 37.185H58.645V45.34H56.37C56.16 44.0333 55.7517 42.9483 55.145 42.085C54.5383 41.2217 53.78 40.5683 52.87 40.125C51.96 39.6817 50.9567 39.46 49.86 39.46C48.6467 39.46 47.585 39.74 46.675 40.3C45.7883 40.86 45.0533 41.6067 44.47 42.54C43.8867 43.4733 43.4433 44.535 43.14 45.725C42.86 46.915 42.72 48.14 42.72 49.4C42.72 51.4067 43 53.1917 43.56 54.755C44.12 56.3183 44.9367 57.555 46.01 58.465C47.1067 59.3517 48.4483 59.795 50.035 59.795C50.4783 59.795 51.0033 59.76 51.61 59.69C52.2167 59.62 52.8233 59.515 53.43 59.375C54.0367 59.235 54.55 59.06 54.97 58.85V55.595C54.97 54.965 54.9817 54.3583 55.005 53.775C55.0517 53.1917 55.0867 52.7483 55.11 52.445C54.7367 52.4683 54.27 52.4917 53.71 52.515C53.15 52.515 52.7417 52.5267 52.485 52.55V49.855H61.795V52.165C61.3983 52.1883 61.0483 52.235 60.745 52.305C60.465 52.375 60.22 52.515 60.01 52.725C59.8233 52.9117 59.6833 53.2033 59.59 53.6C59.4967 53.9967 59.45 54.5333 59.45 55.21V60.81H58.61C57.9333 60.81 57.2567 60.9033 56.58 61.09C55.9033 61.2767 55.18 61.4867 54.41 61.72C53.6867 61.93 52.8933 62.1167 52.03 62.28C51.1667 62.4667 50.21 62.56 49.16 62.56ZM73.5517 62C73.5051 61.6733 73.4701 61.405 73.4467 61.195C73.4467 60.9617 73.4351 60.6933 73.4117 60.39C72.6184 61.1833 71.7784 61.7433 70.8917 62.07C70.0051 62.3967 69.1067 62.56 68.1967 62.56C66.7034 62.56 65.5367 62.1167 64.6967 61.23C63.8567 60.3433 63.4367 59.235 63.4367 57.905C63.4367 56.785 63.7167 55.8283 64.2767 55.035C64.8601 54.2417 65.6184 53.6 66.5517 53.11C67.5084 52.5967 68.5584 52.2117 69.7017 51.955C70.8684 51.675 72.0351 51.5117 73.2017 51.465V49.645C73.2017 49.0383 73.1201 48.49 72.9567 48C72.8167 47.51 72.5601 47.125 72.1867 46.845C71.8367 46.565 71.3351 46.4367 70.6817 46.46C70.2384 46.4833 69.8067 46.5767 69.3867 46.74C68.9667 46.9033 68.6051 47.1367 68.3017 47.44C68.4884 47.65 68.6051 47.8833 68.6517 48.14C68.6984 48.3733 68.7217 48.5833 68.7217 48.77C68.7217 49.2367 68.5351 49.7267 68.1617 50.24C67.7884 50.73 67.1934 50.9633 66.3767 50.94C65.6767 50.9167 65.1401 50.6717 64.7667 50.205C64.3934 49.7383 64.2067 49.19 64.2067 48.56C64.2067 47.6267 64.5334 46.8217 65.1867 46.145C65.8634 45.445 66.7617 44.9083 67.8817 44.535C69.0017 44.1383 70.2384 43.94 71.5917 43.94C73.6451 43.94 75.2317 44.4767 76.3517 45.55C77.4951 46.6 78.0667 48.2917 78.0667 50.625C78.0667 51.4183 78.0667 52.095 78.0667 52.655C78.0667 53.215 78.0551 53.775 78.0317 54.335C78.0317 54.895 78.0317 55.5717 78.0317 56.365C78.0317 56.6917 78.0201 57.1583 77.9967 57.765C77.9734 58.3483 77.9384 58.9083 77.8917 59.445C78.2884 59.3983 78.7084 59.375 79.1517 59.375C79.5951 59.3517 79.9334 59.34 80.1667 59.34V62H73.5517ZM73.1667 53.95C72.5134 54.02 71.8951 54.1367 71.3117 54.3C70.7284 54.4633 70.2151 54.685 69.7717 54.965C69.3517 55.245 69.0134 55.5833 68.7567 55.98C68.5234 56.3767 68.4067 56.82 68.4067 57.31C68.4301 57.9633 68.6401 58.43 69.0367 58.71C69.4334 58.99 69.8884 59.13 70.4017 59.13C70.9384 59.13 71.4401 59.0133 71.9067 58.78C72.3734 58.5467 72.7934 58.2433 73.1667 57.87C73.1667 57.6367 73.1667 57.415 73.1667 57.205C73.1667 56.9717 73.1667 56.7383 73.1667 56.505C73.1667 56.085 73.1667 55.665 73.1667 55.245C73.1667 54.8017 73.1667 54.37 73.1667 53.95Z" fill="white"/>
<path d="M82.1762 62V59.725C82.8295 59.725 83.2962 59.5967 83.5762 59.34C83.8562 59.0833 84.0312 58.7217 84.1012 58.255C84.1945 57.765 84.2412 57.2167 84.2412 56.61V50.73C84.2412 50.31 84.2529 49.8433 84.2762 49.33C84.2995 48.7933 84.3345 48.2683 84.3812 47.755C84.0079 47.7783 83.5645 47.8017 83.0512 47.825C82.5612 47.825 82.1879 47.8367 81.9312 47.86V45.2C83.0045 45.2 83.9145 45.1417 84.6612 45.025C85.4079 44.9083 85.9912 44.7683 86.4112 44.605C86.8545 44.4417 87.1579 44.29 87.3212 44.15H89.0362C89.0829 44.3833 89.1062 44.675 89.1062 45.025C89.1295 45.375 89.1529 45.6667 89.1762 45.9C89.9695 45.2933 90.8212 44.815 91.7312 44.465C92.6645 44.115 93.5395 43.94 94.3562 43.94C95.4295 43.94 96.3162 44.1383 97.0162 44.535C97.7162 44.9083 98.2762 45.48 98.6962 46.25C99.5362 45.55 100.458 44.99 101.461 44.57C102.488 44.15 103.468 43.94 104.401 43.94C106.291 43.94 107.715 44.4883 108.671 45.585C109.651 46.6583 110.141 48.5367 110.141 51.22V56.365C110.141 56.6917 110.13 57.1583 110.106 57.765C110.083 58.3483 110.048 58.9083 110.001 59.445C110.375 59.3983 110.783 59.375 111.226 59.375C111.693 59.3517 112.043 59.34 112.276 59.34V62H103.421V59.725C103.958 59.725 104.343 59.5967 104.576 59.34C104.833 59.0833 104.996 58.7217 105.066 58.255C105.136 57.765 105.171 57.2167 105.171 56.61V51.255C105.148 49.7383 104.891 48.6883 104.401 48.105C103.935 47.5217 103.305 47.2183 102.511 47.195C101.905 47.1717 101.333 47.2767 100.796 47.51C100.283 47.7433 99.8162 48.0233 99.3962 48.35C99.5129 48.8167 99.5945 49.33 99.6412 49.89C99.6879 50.45 99.7112 51.045 99.7112 51.675C99.7112 52.4683 99.7112 53.25 99.7112 54.02C99.7112 54.79 99.7112 55.5717 99.7112 56.365C99.7112 56.6917 99.6995 57.1583 99.6762 57.765C99.6529 58.3483 99.6179 58.9083 99.5712 59.445C99.9445 59.3983 100.353 59.375 100.796 59.375C101.24 59.3517 101.59 59.34 101.846 59.34V62H92.8162V59.725C93.4229 59.725 93.8545 59.5967 94.1112 59.34C94.3912 59.0833 94.5662 58.7217 94.6362 58.255C94.7062 57.765 94.7412 57.2167 94.7412 56.61L94.7062 51.15C94.7062 49.6333 94.4845 48.595 94.0412 48.035C93.5979 47.475 92.9795 47.1833 92.1862 47.16C91.6029 47.16 91.0545 47.2883 90.5412 47.545C90.0512 47.8017 89.6079 48.105 89.2112 48.455C89.2112 48.7583 89.2112 49.05 89.2112 49.33C89.2112 49.61 89.2112 49.9017 89.2112 50.205V56.365C89.2112 56.6917 89.1995 57.1583 89.1762 57.765C89.1529 58.3483 89.1179 58.9083 89.0712 59.445C89.4445 59.3983 89.8295 59.375 90.2262 59.375C90.6229 59.3517 90.9379 59.34 91.1712 59.34V62H82.1762ZM114.373 62V59.725C115.027 59.725 115.493 59.5967 115.773 59.34C116.053 59.0833 116.228 58.7217 116.298 58.255C116.392 57.765 116.438 57.2167 116.438 56.61V50.73C116.438 50.31 116.45 49.8433 116.473 49.33C116.497 48.7933 116.532 48.2683 116.578 47.755C116.205 47.7783 115.762 47.8017 115.248 47.825C114.758 47.825 114.385 47.8367 114.128 47.86V45.2C115.202 45.2 116.112 45.1417 116.858 45.025C117.605 44.9083 118.188 44.7683 118.608 44.605C119.052 44.4417 119.355 44.29 119.518 44.15H121.233C121.28 44.3833 121.303 44.675 121.303 45.025C121.327 45.375 121.35 45.6667 121.373 45.9C122.167 45.2933 123.018 44.815 123.928 44.465C124.862 44.115 125.737 43.94 126.553 43.94C127.627 43.94 128.513 44.1383 129.213 44.535C129.913 44.9083 130.473 45.48 130.893 46.25C131.733 45.55 132.655 44.99 133.658 44.57C134.685 44.15 135.665 43.94 136.598 43.94C138.488 43.94 139.912 44.4883 140.868 45.585C141.848 46.6583 142.338 48.5367 142.338 51.22V56.365C142.338 56.6917 142.327 57.1583 142.303 57.765C142.28 58.3483 142.245 58.9083 142.198 59.445C142.572 59.3983 142.98 59.375 143.423 59.375C143.89 59.3517 144.24 59.34 144.473 59.34V62H135.618V59.725C136.155 59.725 136.54 59.5967 136.773 59.34C137.03 59.0833 137.193 58.7217 137.263 58.255C137.333 57.765 137.368 57.2167 137.368 56.61V51.255C137.345 49.7383 137.088 48.6883 136.598 48.105C136.132 47.5217 135.502 47.2183 134.708 47.195C134.102 47.1717 133.53 47.2767 132.993 47.51C132.48 47.7433 132.013 48.0233 131.593 48.35C131.71 48.8167 131.792 49.33 131.838 49.89C131.885 50.45 131.908 51.045 131.908 51.675C131.908 52.4683 131.908 53.25 131.908 54.02C131.908 54.79 131.908 55.5717 131.908 56.365C131.908 56.6917 131.897 57.1583 131.873 57.765C131.85 58.3483 131.815 58.9083 131.768 59.445C132.142 59.3983 132.55 59.375 132.993 59.375C133.437 59.3517 133.787 59.34 134.043 59.34V62H125.013V59.725C125.62 59.725 126.052 59.5967 126.308 59.34C126.588 59.0833 126.763 58.7217 126.833 58.255C126.903 57.765 126.938 57.2167 126.938 56.61L126.903 51.15C126.903 49.6333 126.682 48.595 126.238 48.035C125.795 47.475 125.177 47.1833 124.383 47.16C123.8 47.16 123.252 47.2883 122.738 47.545C122.248 47.8017 121.805 48.105 121.408 48.455C121.408 48.7583 121.408 49.05 121.408 49.33C121.408 49.61 121.408 49.9017 121.408 50.205V56.365C121.408 56.6917 121.397 57.1583 121.373 57.765C121.35 58.3483 121.315 58.9083 121.268 59.445C121.642 59.3983 122.027 59.375 122.423 59.375C122.82 59.3517 123.135 59.34 123.368 59.34V62H114.373ZM156.301 62C156.254 61.6733 156.219 61.405 156.196 61.195C156.196 60.9617 156.184 60.6933 156.161 60.39C155.367 61.1833 154.527 61.7433 153.641 62.07C152.754 62.3967 151.856 62.56 150.946 62.56C149.452 62.56 148.286 62.1167 147.446 61.23C146.606 60.3433 146.186 59.235 146.186 57.905C146.186 56.785 146.466 55.8283 147.026 55.035C147.609 54.2417 148.367 53.6 149.301 53.11C150.257 52.5967 151.307 52.2117 152.451 51.955C153.617 51.675 154.784 51.5117 155.951 51.465V49.645C155.951 49.0383 155.869 48.49 155.706 48C155.566 47.51 155.309 47.125 154.936 46.845C154.586 46.565 154.084 46.4367 153.431 46.46C152.987 46.4833 152.556 46.5767 152.136 46.74C151.716 46.9033 151.354 47.1367 151.051 47.44C151.237 47.65 151.354 47.8833 151.401 48.14C151.447 48.3733 151.471 48.5833 151.471 48.77C151.471 49.2367 151.284 49.7267 150.911 50.24C150.537 50.73 149.942 50.9633 149.126 50.94C148.426 50.9167 147.889 50.6717 147.516 50.205C147.142 49.7383 146.956 49.19 146.956 48.56C146.956 47.6267 147.282 46.8217 147.936 46.145C148.612 45.445 149.511 44.9083 150.631 44.535C151.751 44.1383 152.987 43.94 154.341 43.94C156.394 43.94 157.981 44.4767 159.101 45.55C160.244 46.6 160.816 48.2917 160.816 50.625C160.816 51.4183 160.816 52.095 160.816 52.655C160.816 53.215 160.804 53.775 160.781 54.335C160.781 54.895 160.781 55.5717 160.781 56.365C160.781 56.6917 160.769 57.1583 160.746 57.765C160.722 58.3483 160.687 58.9083 160.641 59.445C161.037 59.3983 161.457 59.375 161.901 59.375C162.344 59.3517 162.682 59.34 162.916 59.34V62H156.301ZM155.916 53.95C155.262 54.02 154.644 54.1367 154.061 54.3C153.477 54.4633 152.964 54.685 152.521 54.965C152.101 55.245 151.762 55.5833 151.506 55.98C151.272 56.3767 151.156 56.82 151.156 57.31C151.179 57.9633 151.389 58.43 151.786 58.71C152.182 58.99 152.637 59.13 153.151 59.13C153.687 59.13 154.189 59.0133 154.656 58.78C155.122 58.5467 155.542 58.2433 155.916 57.87C155.916 57.6367 155.916 57.415 155.916 57.205C155.916 56.9717 155.916 56.7383 155.916 56.505C155.916 56.085 155.916 55.665 155.916 55.245C155.916 54.8017 155.916 54.37 155.916 53.95Z" fill="#363636"/>
</svg>
